<?xml version="1.0" encoding="UTF-8"?>
<svg id="Layer_1" data-name="Layer 1" xmlns="http://www.w3.org/2000/svg" xmlns:xlink="http://www.w3.org/1999/xlink" viewBox="0 0 36.71 43.93">
  <defs>
    <style>
      .cls-1 {
        fill: url(#linear-gradient);
        stroke-width: 0px;
      }

      .cls-2 {
        fill: #231f20;
      }

      .cls-2, .cls-3, .cls-4, .cls-5, .cls-6 {
        stroke: #231f20;
        stroke-miterlimit: 10;
      }

      .cls-2, .cls-6 {
        stroke-width: .5px;
      }

      .cls-3 {
        fill: #fff;
      }

      .cls-4, .cls-5, .cls-6 {
        fill: none;
      }

      .cls-5 {
        stroke-width: .3px;
      }
    </style>
    <linearGradient id="linear-gradient" x1=".5" y1="16.44" x2="36.21" y2="16.44" gradientUnits="userSpaceOnUse">
      <stop offset="0" stop-color="#941a1d"/>
      <stop offset=".12" stop-color="#a4243a"/>
      <stop offset=".29" stop-color="#b6305c"/>
      <stop offset=".46" stop-color="#c53a76"/>
      <stop offset=".63" stop-color="#cf4189"/>
      <stop offset=".81" stop-color="#d54595"/>
      <stop offset="1" stop-color="#d84799"/>
    </linearGradient>
  </defs>
  <path class="cls-4" d="m13.69,21.83c.64-.14,1.57-.35,2.69-.57,1.69-.34,2.07-.38,2.47-.38.67,0,1.72.11,3,.73"/>
  <path class="cls-3" d="m4.1,19c1.19,0,1.99.3,2.5.58.77.43,1.08.9,2.08,1.42.64.33,1.21.49,1.58.58"/>
  <path class="cls-2" d="m18.39,24.93c-.29.52-1.04.61-1.42.33-.42-.31-.5-1.15.08-1.75.38-.15.79-.08,1.08.17.35.3.48.83.25,1.25Z"/>
  <path class="cls-6" d="m14.7,24.25c.38-.26,1.22-.75,2.36-.74.43,0,.79.08,1.08.17.35.58.69,1.16,1.04,1.74-.35.42-.69.84-1.04,1.26"/>
  <path class="cls-2" d="m7.28,22.03c-.52.07-.88.64-.77,1.16.1.48.59.86,1.08.77.54-.1.84-.73.69-1.23-.12-.41-.55-.75-1-.69Z"/>
  <path class="cls-6" d="m10.99,23.54c-1.28,1.4-2.24,2.66-2.92,3.62-.82,1.16-1.24,1.91-1.08,2.78.13.72.61,1.19.76,1.34.89.85,2.03.79,2.24.77"/>
  <path class="cls-6" d="m12.64,36.43c-.58-.24-1.46-.53-2.56-.59-.71-.04-1.14.04-1.9.09-.78.05-1.92.08-3.33-.07,0,.25.07.8.45,1.32.36.5.83.71,1.13.83,1.38.59,2.84.08,3.27-.09"/>
  <line class="cls-5" x1="18.74" y1="38.28" x2="17.85" y2="39.18"/>
  <line class="cls-5" x1="19.93" y1="34.61" x2="19.62" y2="35.82"/>
  <line class="cls-5" x1="14.32" y1="34.7" x2="15.05" y2="35.73"/>
  <line class="cls-5" x1="15.57" y1="38.99" x2="15.28" y2="40.22"/>
  <line class="cls-5" x1="17.44" y1="36.3" x2="16.43" y2="37.06"/>
  <line class="cls-5" x1="13.11" y1="40.56" x2="12.17" y2="41.4"/>
  <line class="cls-5" x1="21.57" y1="31.43" x2="21.27" y2="32.66"/>
  <line class="cls-5" x1="6.88" y1="33.87" x2="5.94" y2="34.7"/>
  <line class="cls-5" x1="4.85" y1="34.19" x2="3.91" y2="35.02"/>
  <line class="cls-5" x1="6.41" y1="39.98" x2="5.46" y2="40.82"/>
  <line class="cls-5" x1="10.74" y1="40.98" x2="9.8" y2="41.82"/>
  <line class="cls-5" x1="22.51" y1="28.93" x2="21.57" y2="29.77"/>
  <line class="cls-5" x1="11.91" y1="34.45" x2="12.32" y2="35.2"/>
  <line class="cls-5" x1="9.9" y1="34.09" x2="10.63" y2="35.12"/>
  <line class="cls-5" x1="4.23" y1="38.57" x2="3.97" y2="39.8"/>
  <line class="cls-5" x1="8.3" y1="41.4" x2="7.35" y2="42.24"/>
  <line class="cls-5" x1="10.9" y1="39.03" x2="12" y2="39.64"/>
  <line class="cls-5" x1="20.58" y1="36.45" x2="20.27" y2="37.67"/>
  <g>
    <path class="cls-1" d="m4.59,18.55c-.1.35-.18.67-.26.96-.38-.24-3.67-2.47-3.82-6.3-.13-3.32,2.16-5.59,3.17-6.56,1.34-1.29,2.72-2,3.6-2.38-.72,1.86-.6,2.42-.36,2.59.53.4,2-.92,4.47-2.59,2.05-1.39,3.81-2.36,4.97-2.96-.16,1.11-.21,2.45.43,2.82.77.43,2.09-.69,3.1-1.37,1.72-1.15,4.42-2.3,8.78-2.26-.11.17-1.12,2-.22,3.9.14.29.74,1.46,2.1,1.96,1.39.52,3.02.12,4.2-.99,1.38,2.23,1.55,3.96,1.43,5.17-.24,2.37-1.69,3.47-1.62,5.89.05,1.52.67,2.74,1.19,3.55-.42.44-1.66,1.85-1.89,4.06-.2,1.85.42,3.27.7,3.84-.24.62-.92,2.07-2.49,3.2-1.31.94-2.62,1.21-3.28,1.29-1.01-.04-2.02-.09-3.03-.13.43-.45.76-.87,1-1.21,0,0,.95-1.36,1.4-3.28.1-.39.18-.88-.04-1.4-.12-.29-.29-.49-.42-.62.42-1.31.85-2.63,1.27-3.95-.76-1.04-2.01-2.39-3.89-3.1-1.77-.67-2.26-.08-4.25-.72-2.91-.94-3.58-2.76-5.33-2.52-1.06.14-1.83.94-2.31,1.58-.12-.22-1.31-2.33-3.67-2.59-1.64-.18-3.28.54-4.12,1.71-.22.31-.42,1.01-.81,2.41Z"/>
    <g>
      <path class="cls-4" d="m4.33,19.51c.08-.29.16-.61.26-.96.39-1.4.59-2.1.81-2.41.84-1.17,2.48-1.89,4.12-1.71,2.36.26,3.55,2.37,3.67,2.59.48-.64,1.25-1.44,2.31-1.58,1.75-.24,2.42,1.58,5.33,2.52,1.99.64,2.48.05,4.25.72,1.88.71,3.13,2.06,3.89,3.1-.42,1.32-.85,2.64-1.27,3.95.13.13.3.33.42.62.22.52.14,1.01.04,1.4-.45,1.92-1.4,3.28-1.4,3.28-.24.34-.57.76-1,1.21-.34.36-.75.73-1.24,1.1-.36.45-.94,1.18-1.64,2.08-3.4,4.35-3.85,5.13-5.22,5.93-.84.49-1.83.76-3.82,1.28-2.1.55-3.37.9-5.01.77-1.31-.1-3.28-.25-4.59-1.63-.95-1-1.13-3-1.48-6.95-.15-1.82-.23-2.73-.17-3.72.13-2.25.61-2.75.88-5.65.16-1.71.02-1.79.24-3.18.14-.92.32-1.66.62-2.76Z"/>
      <path class="cls-4" d="m4.33,19.51c-.38-.24-3.67-2.47-3.82-6.3-.13-3.32,2.16-5.59,3.17-6.56,1.34-1.29,2.72-2,3.6-2.38-.72,1.86-.6,2.42-.36,2.59.53.4,2-.92,4.47-2.59,2.05-1.39,3.81-2.36,4.97-2.96-.16,1.11-.21,2.45.43,2.82.77.43,2.09-.69,3.1-1.37,1.72-1.15,4.42-2.3,8.78-2.26-.11.17-1.12,2-.22,3.9.14.29.74,1.46,2.1,1.96,1.39.52,3.02.12,4.2-.99,1.38,2.23,1.55,3.96,1.43,5.17-.24,2.37-1.69,3.47-1.62,5.89.05,1.52.67,2.74,1.19,3.55-.42.44-1.66,1.85-1.89,4.06-.2,1.85.42,3.27.7,3.84-.24.62-.92,2.07-2.49,3.2-1.31.94-2.62,1.21-3.28,1.29"/>
    </g>
  </g>
  <path class="cls-4" d="m23.95,26.83c.25-.26.75-.72,1.52-.98.24-.08,1.74-.6,2.43.02,1.03.94-.35,3.96-1.33,5.44-.78,1.19-1.5,1.69-1.86,1.91-.86.53-1.69.69-2.19.75"/>
  <path class="cls-5" d="m24.85,27.95c1.37-.95,1.84-.99,2.01-.84.39.35-.65,1.94-1.76,3.63-.3.45-.65.95-1.24,1.07-.07.01-.79.18-1.1-.21-.26-.34-.17-.99.34-1.5.27.25.63.35.9.23.44-.19.46-.83.46-.97,0-.29-.08-.51-.14-.65"/>
</svg>